<svg width="333" height="195" viewBox="0 0 333 195" fill="none" xmlns="http://www.w3.org/2000/svg">
<path d="M163.022 194.874C152.221 194.874 143.299 192.447 136.255 187.595C129.368 182.743 124.202 176.09 120.759 167.638C117.472 159.185 115.828 149.558 115.828 138.758V56.8151C115.828 45.7016 117.472 35.9968 120.759 27.7008C124.046 19.2482 129.133 12.674 136.02 7.97812C143.064 3.28226 152.065 0.934326 163.022 0.934326C173.979 0.934326 182.901 3.28226 189.788 7.97812C196.675 12.674 201.762 19.2482 205.05 27.7008C208.337 35.9968 209.98 45.7016 209.98 56.8151V138.758C209.98 149.715 208.258 159.42 204.815 167.872C201.528 176.325 196.44 182.977 189.553 187.83C182.666 192.526 173.822 194.874 163.022 194.874ZM163.022 174.212C168.97 174.212 173.431 172.49 176.405 169.046C179.535 165.603 181.648 161.22 182.744 155.898C183.996 150.419 184.623 144.784 184.623 138.993V56.5803C184.623 50.4757 184.075 44.7624 182.979 39.4404C181.883 33.9619 179.77 29.5791 176.64 26.292C173.666 23.0049 169.126 21.3613 163.022 21.3613C156.917 21.3613 152.299 23.0049 149.169 26.292C146.038 29.5791 143.925 33.9619 142.829 39.4404C141.734 44.7624 141.186 50.4757 141.186 56.5803V138.993C141.186 144.784 141.734 150.419 142.829 155.898C144.082 161.22 146.273 165.603 149.404 169.046C152.691 172.49 157.23 174.212 163.022 174.212Z" fill="#039475"/>
<path d="M79.017 3.19189V193.397H54.7475V142.036H0V116.073L49.1034 3.19189H79.017Z" fill="#039475"/>
<path d="M55.8764 119.46H24.834L55.8764 33.6699V119.46Z" fill="white"/>
<path d="M0 142.036L24.8339 119.46H103.851L79.5814 142.036H0Z" fill="#D32026"/>
<path d="M308.167 3.19202V193.397H283.898V142.036H229.15V116.073L278.254 3.19202H308.167Z" fill="#039475"/>
<path d="M285.027 119.46H253.984L285.027 33.6699V119.46Z" fill="white"/>
<path d="M229.15 142.036L253.984 119.46H333.001L308.732 142.036H229.15Z" fill="#D32026"/>
</svg>
