<svg width="27" height="28" fill="none" xmlns="http://www.w3.org/2000/svg"><g clip-path="url(#clip0_146_3885)" fill="#D32026"><path d="M6.004 19.926a11.806 11.806 0 01-3.085-5.972 12.069 12.069 0 01.634-6.743 11.587 11.587 0 014.14-5.24A10.967 10.967 0 0113.943 0a10.966 10.966 0 016.253 1.963A11.585 11.585 0 0124.343 7.2a12.068 12.068 0 01.641 6.742 11.807 11.807 0 01-3.079 5.975l-7.955 8.069-7.946-8.06zm-1.054-8.26a9.572 9.572 0 00.68 3.575 9.302 9.302 0 001.956 3.026l6.364 6.454 6.373-6.464a9.407 9.407 0 002.243-3.892c.428-1.469.5-3.024.21-4.528a9.486 9.486 0 00-1.874-4.097 9.031 9.031 0 00-3.514-2.698 8.709 8.709 0 00-4.325-.663 8.798 8.798 0 00-4.115 1.53 9.222 9.222 0 00-2.936 3.36 9.61 9.61 0 00-1.062 4.398z"/><ellipse cx="14.175" cy="11.9" rx="2.025" ry="2.1"/></g><defs><clipPath id="clip0_146_3885"><path fill="#fff" d="M0 0h27v28H0z"/></clipPath></defs></svg>