<svg width="20" height="22" fill="none" xmlns="http://www.w3.org/2000/svg"><path d="M19.244 19.065l-.761.948C11.647 27.09-4.988 9.103 1.456 1.686l.96-.902A2.471 2.471 0 014.228 0a2.479 2.479 0 011.799.82c.026.028 1.57 2.2 1.57 2.2.46.522.715 1.214.715 1.934a2.923 2.923 0 01-.718 1.931l-.969 1.311a11.649 11.649 0 002.315 3.76 10.656 10.656 0 003.471 2.512l1.222-1.052a2.487 2.487 0 011.786-.778 2.487 2.487 0 011.789.772s2.009 1.673 2.034 1.7A2.92 2.92 0 0120 17.089c0 .74-.272 1.452-.756 1.977zm-1.148-2.639s-2.003-1.663-2.024-1.69a.9.9 0 00-.647-.28.9.9 0 00-.646.28c-.022.024-1.706 1.476-1.706 1.476a.776.776 0 01-.817.136 12.455 12.455 0 01-4.483-3.11A13.711 13.711 0 014.89 8.393a.971.971 0 01.122-.898S6.354 5.674 6.378 5.65a1.04 1.04 0 00.266-.7 1.04 1.04 0 00-.266-.7c-.027-.026-1.564-2.187-1.564-2.187a.879.879 0 00-.636-.254.886.886 0 00-.624.288l-.96.907C-2.115 9.124 12.3 23.852 17.26 18.782l.761-.948c.18-.178.287-.425.3-.688a1.066 1.066 0 00-.226-.72z" fill="#0D0D0D"/></svg>