<svg width="250" height="250" fill="none" xmlns="http://www.w3.org/2000/svg"><mask id="a" style="mask-type:alpha" maskUnits="userSpaceOnUse" x="0" y="0" width="250" height="250"><rect width="250" height="250" rx="10" fill="#DAE5DA"/></mask><g mask="url(#a)" stroke="#E8EDE8"><path fill-rule="evenodd" clip-rule="evenodd" d="M83.875 130.369v5.625H134.5v-5.625H83.875zm0 16.875v5.625H157v-5.625H83.875zm0 16.875v5.625H157v-5.625H83.875z" fill="#E8EDE8" stroke-width="2"/><path d="M69.813 107.937A2.814 2.814 0 0067 110.75v134.932a2.814 2.814 0 002.813 2.812h106.875a2.813 2.813 0 002.812-2.812v-16.448a2.81 2.81 0 00-2.812-2.812 2.81 2.81 0 00-2.813 2.812v13.635H72.625V113.562h74.773l26.477 26.42v15.835a2.81 2.81 0 004.801 1.988 2.808 2.808 0 00.824-1.988v-17.01c0-.745-.295-1.458-.821-1.985l-28.125-28.058a2.82 2.82 0 00-1.992-.827h-78.75zm106.83 59.141a2.816 2.816 0 00-2.768 2.846v8.258a2.812 2.812 0 105.625 0v-8.258a2.808 2.808 0 00-2.857-2.846z" fill="#E8EDE8" stroke-width="2"/><path fill-rule="evenodd" clip-rule="evenodd" d="M148.518 107.869a2.81 2.81 0 00-2.768 2.812v28.125a2.814 2.814 0 002.812 2.813h28.193a2.81 2.81 0 002.753-3.359 2.816 2.816 0 00-.767-1.439l-28.187-28.125a2.82 2.82 0 00-2.036-.827zm2.857 9.602l18.562 18.523h-18.562v-18.523z" fill="#E8EDE8" stroke-width="2"/><path d="M177.812 197.875h-96.75v5.625h96.75v-5.625z" fill="#E8EDE8" stroke-width="2"/><path d="M204.812 172.163c17.056 0 30.938 13.883 30.938 30.938s-13.882 30.937-30.938 30.937a30.982 30.982 0 01-30.937-30.937c0-17.055 13.882-30.938 30.937-30.938zm0 5.625a25.266 25.266 0 00-25.312 25.313c0 14.012 11.301 25.312 25.312 25.312 14.012 0 25.313-11.3 25.313-25.312s-11.301-25.313-25.313-25.313z" fill="#E8EDE8" stroke-width="2"/><path d="M212.688 194.123c5.248 0 9.562 4.315 9.562 9.563s-4.314 9.562-9.562 9.562a9.62 9.62 0 01-9.563-9.562c0-5.248 4.314-9.563 9.563-9.563zm0 5.625a3.884 3.884 0 00-2.796 1.142 3.884 3.884 0 00-1.142 2.796 3.9 3.9 0 003.938 3.937c2.21 0 3.937-1.732 3.937-3.937 0-2.211-1.727-3.938-3.937-3.938z" fill="#E8EDE8" stroke-width="2"/><path fill-rule="evenodd" clip-rule="evenodd" d="M162.625 209.119v5.625h5.625v-5.625h-5.625zm-16.875 0v5.625h5.625v-5.625h-5.625zm-16.875 0v5.625h5.625v-5.625h-5.625zm-16.875 0v5.625h5.625v-5.625H112zm-16.875 0v5.625h5.625v-5.625h-5.625z" fill="#E8EDE8" stroke-width="2"/><path d="M232.431 192.621c.159.006.317.024.473.056a16.892 16.892 0 019.169 4.734 16.891 16.891 0 014.708 9.183 16.913 16.913 0 01-8.719 17.623 16.888 16.888 0 01-24.483-11.625 16.888 16.888 0 011.179-10.251 2.816 2.816 0 013.732-1.398 2.822 2.822 0 011.398 3.733 11.247 11.247 0 008.76 15.813 11.241 11.241 0 006.776-1.234 11.22 11.22 0 004.795-4.937 11.224 11.224 0 001.015-6.808 11.232 11.232 0 00-9.253-9.28 2.812 2.812 0 01-2.411-3.011 2.814 2.814 0 012.861-2.586v-.012zm-144.709-5.99a2.81 2.81 0 00-2.464 1.451l-7.79 14.051a2.815 2.815 0 000 2.728l7.79 14.063a2.818 2.818 0 002.465 1.445h90.061a2.813 2.813 0 100-5.625H89.388l-6.233-11.25 6.233-11.238h88.284a2.815 2.815 0 001.989-4.802 2.815 2.815 0 00-1.989-.823h-89.95z" fill="#E8EDE8" stroke-width="2"/><circle cx="150.5" cy="166.5" r="123" stroke-width="7"/></g></svg>