<svg width="250" height="250" fill="none" xmlns="http://www.w3.org/2000/svg"><mask id="a" style="mask-type:alpha" maskUnits="userSpaceOnUse" x="0" y="0" width="250" height="250"><rect width="250" height="250" rx="10" fill="#DAE5DA"/></mask><g mask="url(#a)"><path d="M68.956 103.5c-3.367 0-6.081 2.62-6.081 5.875v11.75c0 3.255 2.714 5.875 6.08 5.875h5.67v123.375H80.5v-79.313h141v79.313h5.875V127h5.669c3.367 0 6.081-2.62 6.081-5.875v-11.75c0-3.255-2.714-5.875-6.081-5.875H68.956zM80.5 132.875h141v5.875h-141v-5.875zm0 11.75h141v5.875h-141v-5.875zm0 11.75h141v5.875h-141v-5.875zm60.101 43.475c-2.115 0-4.112-.059-6.309.693-2.198.729-4.289 2.186-6.721 4.636l-12.003 11.82h-.035l-.482.47h8.031l8.46-8.331h.006c2.097-2.109 3.396-2.896 4.524-3.272 1.128-.376 2.385-.388 4.535-.388h13.331v6.016c0 3.278-2.303 5.987-5.141 5.987h-33.288l-20.997 5.793c-2.732.757-5.129 2.708-5.129 5.992v2.902h2.773c3.977-.058 3.977 5.934 0 5.875h-2.773v2.879c0 3.284 2.291 5.993 5.129 5.993h9.606c-.036-.353-.118-.688-.118-1.046 0-6.333 5.358-11.409 11.75-11.409s11.75 5.076 11.75 11.409c0 .352-.082.693-.118 1.04h47.236c-.036-.353-.118-.688-.118-1.04 0-6.333 5.358-11.409 11.75-11.409S198 239.536 198 245.869c0 .352-.082.693-.118 1.04h9.594c2.844 0 5.141-2.703 5.141-5.993v-17.507c0-3.173-2.168-5.787-4.876-5.934h-.012c-.082 0-.153-.059-.235-.059h-10.387l-.84-.763s-8.695-8.273-13.207-12.156l.123.135c-2.878-3.008-5.205-4.77-10.281-4.77h-32.301v-.012zm25.087 5.64h6.638c2.485 0 4.471.822 6.739 3.19l.07.071 9.536 8.73h-17.843c-2.838 0-5.14-2.708-5.14-5.993v-5.998zm-20.857 20.797H151c3.971-.058 3.971 5.934 0 5.875h-5.875c-3.919.206-4.212-5.669-.294-5.875zm20.592 0h6.169c3.977-.058 3.977 5.934 0 5.875h-5.875c-3.913.206-4.207-5.669-.294-5.875zm43.963 5.875h3.166v5.875h-2.872c-3.913.206-4.213-5.669-.294-5.875zm-94.37 7.168c-3.349 0-5.875 2.491-5.875 5.522 0 3.038 2.526 5.523 5.875 5.523 3.348 0 5.875-2.485 5.875-5.523 0-3.031-2.527-5.522-5.875-5.522zm70.823 0c-3.355 0-5.875 2.491-5.875 5.522 0 3.038 2.52 5.523 5.875 5.523 3.349 0 5.875-2.485 5.875-5.523 0-3.031-2.526-5.522-5.875-5.522z" fill="#E8EDE8"/><circle cx="150.5" cy="166.5" r="123" stroke="#E8EDE8" stroke-width="7"/></g></svg>