<svg width="250" height="252" fill="none" xmlns="http://www.w3.org/2000/svg"><mask id="a" style="mask-type:alpha" maskUnits="userSpaceOnUse" x="0" y="0" width="250" height="250"><rect width="250" height="250" rx="10" fill="#DAE5DA"/></mask><g mask="url(#a)"><circle cx="150.5" cy="166.5" r="123" stroke="#E8EDE8" stroke-width="7"/></g><g clip-path="url(#clip0_163_819)" fill="#E8EDE8" stroke="#E8EDE8" stroke-width="1.5"><path d="M146.352 138.455h1.991v26.62a2.257 2.257 0 002.256 2.256H187.4a2.257 2.257 0 002.256-2.256v-26.62h1.99a2.258 2.258 0 001.355-4.065l-22.55-16.874a2.25 2.25 0 00-2.701-.005l-22.745 16.874a2.261 2.261 0 00-.797 2.524 2.262 2.262 0 002.144 1.546zm25.992 24.357h-6.279v-7.876c0-1.723 1.413-3.129 3.152-3.129a3.12 3.12 0 012.214.926c.577.568.915 1.369.915 2.2l-.002 7.879zm-3.25-40.672l15.768 11.798h-31.674l15.906-11.798zm-16.234 16.315h32.279v24.359h-8.281v-7.876c0-2.042-.831-4.021-2.261-5.41a7.556 7.556 0 00-5.385-2.233c-4.228 0-7.666 3.429-7.666 7.643v7.876h-8.686v-24.359zm-47.499 41.301h40.991a2.26 2.26 0 002.261-2.256 2.264 2.264 0 00-2.261-2.261h-40.991a2.264 2.264 0 00-2.26 2.261 2.26 2.26 0 002.26 2.256zm0 15.733h40.991a2.261 2.261 0 002.261-2.26 2.26 2.26 0 00-2.261-2.256h-40.991a2.26 2.26 0 00-2.26 2.256 2.26 2.26 0 002.26 2.26zm43.252 13.473a2.26 2.26 0 00-2.261-2.256h-40.991a2.26 2.26 0 00-2.26 2.256 2.261 2.261 0 002.26 2.261h40.991a2.263 2.263 0 002.261-2.261z"/><path d="M236.127 140.678l-3.143-3.143c-3.692-3.687-9.555-3.836-13.068-.328l-10.995 10.996v-35.094c0-5.071-4.123-9.189-9.189-9.189h-65.479c-.047 0-.081.018-.128.023-.21.009-.414.049-.615.123-.063.024-.128.038-.186.068a2.143 2.143 0 00-.668.444l-41.997 41.998a2.1 2.1 0 00-.44.658c-.033.068-.049.142-.077.215-.063.19-.1.381-.114.577-.005.049-.028.095-.028.144v93.721c0 5.071 4.12 9.189 9.19 9.189h100.542c5.066 0 9.189-4.12 9.189-9.189v-60.608l21.684-21.684c.004 0 .004-.005.004-.005l5.844-5.848c3.515-3.511 3.371-9.375-.326-13.068zm-121.277-11.91l17.142-17.142v29.611a4.68 4.68 0 01-4.674 4.675h-29.61l17.142-17.144zm89.556 113.123a4.679 4.679 0 01-4.674 4.675H99.189a4.68 4.68 0 01-4.675-4.675v-91.465h32.804c5.066 0 9.189-4.121 9.189-9.189v-32.808h63.222c2.577 0 4.675 2.1 4.675 4.68v39.61l-50.977 50.982a2.259 2.259 0 00-.572.959l-5.562 18.907a2.26 2.26 0 002.165 2.896c.214 0 .428-.033.636-.096l18.911-5.562c.363-.104.691-.3.959-.568l34.44-34.44.002 56.094zm-47.908-33.606l8.88 8.884-12.581 3.702 3.701-12.586zm48.591-29.553c-.014.009-.024.023-.038.032l-35.846 35.849-10.153-10.158 56.611-56.611 3.483 3.483-11.687 11.683a2.254 2.254 0 000 3.192 2.256 2.256 0 003.194 0l11.687-11.683 3.478 3.483-20.729 20.73zm28.172-28.178l-4.251 4.256-10.153-10.158 4.251-4.251c1.751-1.75 4.752-1.604 6.684.329l3.143 3.143c1.933 1.93 2.082 4.931.326 6.681z"/></g><defs><clipPath id="clip0_163_819"><path fill="#fff" transform="translate(90 103)" d="M0 0h149v149H0z"/></clipPath></defs></svg>