<svg width="250" height="250" fill="none" xmlns="http://www.w3.org/2000/svg"><mask id="a" style="mask-type:alpha" maskUnits="userSpaceOnUse" x="0" y="0" width="250" height="250"><rect width="250" height="250" rx="10" fill="#DAE5DA"/></mask><g mask="url(#a)"><circle cx="150.5" cy="166.5" r="123" stroke="#E8EDE8" stroke-width="7"/><path d="M241.388 172a5.632 5.632 0 01-3.275-1.077l-75.794-54.286-75.793 54.286a5.63 5.63 0 01-4.04.67 5.646 5.646 0 01-3.43-2.246 5.682 5.682 0 01.918-7.604l79.07-56.666a5.628 5.628 0 016.551 0l79.069 56.666a5.677 5.677 0 01.032 9.157 5.64 5.64 0 01-3.308 1.1zm-141.194-34a5.638 5.638 0 01-3.994-1.66 5.675 5.675 0 01-1.654-4.007v-22.666c0-1.503.595-2.945 1.654-4.007a5.638 5.638 0 013.994-1.66h22.591c1.498 0 2.934.597 3.993 1.66a5.677 5.677 0 010 8.014 5.639 5.639 0 01-3.993 1.659h-16.944v17a5.676 5.676 0 01-1.654 4.007 5.637 5.637 0 01-3.993 1.66z" fill="#E8EDE8"/><path d="M213.125 251H185a5.614 5.614 0 01-3.977-1.653 5.65 5.65 0 01-1.648-3.99v-39.5h-33.75v39.5a5.65 5.65 0 01-1.648 3.99A5.614 5.614 0 01140 251h-28.125a16.85 16.85 0 01-11.932-4.958A16.957 16.957 0 0195 234.071v-56.428a5.65 5.65 0 011.647-3.99 5.614 5.614 0 017.955 0 5.65 5.65 0 011.648 3.99v56.428c0 1.497.593 2.932 1.648 3.991a5.613 5.613 0 003.977 1.652h22.5v-39.5c0-1.496.593-2.932 1.648-3.99a5.614 5.614 0 013.977-1.653h45c1.492 0 2.923.595 3.977 1.653a5.652 5.652 0 011.648 3.99v39.5h22.5a5.613 5.613 0 003.977-1.652 5.655 5.655 0 001.648-3.991v-56.428a5.65 5.65 0 011.648-3.99 5.614 5.614 0 017.954 0 5.65 5.65 0 011.648 3.99v56.428c0 4.49-1.778 8.796-4.943 11.971A16.848 16.848 0 01213.125 251z" fill="#E8EDE8"/></g></svg>