<svg width="250" height="255" fill="none" xmlns="http://www.w3.org/2000/svg"><mask id="a" style="mask-type:alpha" maskUnits="userSpaceOnUse" x="0" y="0" width="250" height="250"><rect width="250" height="250" rx="10" fill="#DAE5DA"/></mask><g mask="url(#a)"><circle cx="150.5" cy="166.5" r="123" stroke="#E8EDE8" stroke-width="7"/></g><path d="M219.708 163.17h-1.333v-30.897a6.023 6.023 0 000-.711 1.332 1.332 0 000-.296 2.969 2.969 0 00-.534-.8l-26.275-26.097a2.493 2.493 0 00-.859-.593h-.267a2.281 2.281 0 00-.799 0h-57.498a8.324 8.324 0 00-8.324 8.324v17.774H93.13a6.722 6.722 0 00-6.724 6.398v98.703a14.544 14.544 0 0014.515 14.515h113.218a14.485 14.485 0 0014.455-14.456v-62.977a8.887 8.887 0 00-8.886-8.887zm-11.464-33.652h-13.538a2.37 2.37 0 01-2.37-2.369v-13.538l15.908 15.907zm-78.5-17.773a2.4 2.4 0 012.399-2.4h54.269v17.774a8.295 8.295 0 008.294 8.294h17.774v73.731a2.4 2.4 0 01-2.4 2.4h-4.502v-58.239a8.888 8.888 0 00-8.887-8.886h-44.434l-5.925-11.257a6.706 6.706 0 00-2.457-2.635 6.703 6.703 0 00-3.467-.979h-10.664v-17.803zM92.33 234.975v-98.703a.8.8 0 01.8-.799h47.396a.767.767 0 01.711.414l6.695 12.857a2.958 2.958 0 002.636 1.599h46.152a2.96 2.96 0 012.963 2.962v81.107a15.08 15.08 0 002.962 9.154H100.921a8.59 8.59 0 01-8.59-8.591zm130.34 0a8.533 8.533 0 01-8.294 8.472c-6.577-1.629-8.887-4.621-8.887-10.96v-15.108h4.473a8.354 8.354 0 008.324-8.324v-39.961h1.333a2.96 2.96 0 012.962 2.963l.089 62.918z" fill="#E8EDE8" stroke="#E8EDE8"/><path d="M183.953 186.572a2.963 2.963 0 00-2.962 2.962v4.473a2.962 2.962 0 105.924 0v-4.473c0-.786-.312-1.539-.867-2.095a2.965 2.965 0 00-2.095-.867zm0-23.402h-19.64a2.963 2.963 0 000 5.924h16.678v9.391a2.96 2.96 0 002.962 2.962 2.962 2.962 0 002.962-2.962v-12.353c0-.786-.312-1.539-.867-2.095a2.965 2.965 0 00-2.095-.867z" fill="#E8EDE8" stroke="#E8EDE8"/></svg>