<svg width="250" height="250" fill="none" xmlns="http://www.w3.org/2000/svg"><mask id="a" style="mask-type:alpha" maskUnits="userSpaceOnUse" x="0" y="0" width="250" height="250"><rect width="250" height="250" rx="10" fill="#DAE5DA"/></mask><g mask="url(#a)"><path d="M179.445 239.266c-.312 0-.612-.124-.834-.345l-3.814-3.814-4.381 1.111a1.183 1.183 0 01-1.455-.958l-.852-5.346-4.2-1.682a1.18 1.18 0 01-.612-1.631l2.461-4.827-2.41-3.844a1.179 1.179 0 01.464-1.677l4.828-2.462.309-4.507a1.178 1.178 0 011.366-1.083l5.337.865 2.883-3.498a1.18 1.18 0 011.746-.082l3.83 3.846 4.381-1.11a1.179 1.179 0 011.455.958l.851 5.347 4.2 1.682a1.18 1.18 0 01.613 1.63l-2.462 4.842 2.409 3.829a1.18 1.18 0 01-.465 1.68l-4.825 2.443-.309 4.522a1.18 1.18 0 01-1.366 1.084l-5.343-.867-2.9 3.471a1.175 1.175 0 01-.852.422l-.053.001zm-4.288-6.647c.309 0 .61.122.834.346l3.376 3.375 2.504-2.996c.266-.32.681-.476 1.094-.408l4.728.766.267-3.899c.028-.415.273-.785.644-.972l4.268-2.162-2.076-3.299a1.18 1.18 0 01-.053-1.163l2.181-4.288-3.624-1.452a1.178 1.178 0 01-.726-.909l-.754-4.732-3.78.957a1.178 1.178 0 01-1.126-.311l-3.386-3.4-2.486 3.017a1.174 1.174 0 01-1.099.414l-4.729-.767-.266 3.883a1.18 1.18 0 01-.641.97l-4.275 2.18 2.081 3.318c.22.352.24.793.051 1.163l-2.178 4.272 3.621 1.451c.386.154.661.499.727.909l.754 4.731 3.78-.958c.096-.024.193-.036.289-.036z" fill="#E8EDE8"/><path d="M169.168 229.248l.958 6.006 5.031-1.275 4.288 4.288 3.331-3.987 6.006.974.355-5.191 5.423-2.746-2.765-4.395 2.765-5.439-4.822-1.931-.956-6.007-5.032 1.275-4.305-4.322-3.314 4.02-6.005-.973-.355 5.173-5.423 2.765 2.765 4.411-2.765 5.423 4.82 1.931zm-65.417 14.016v-137.32c0-1.063.886-1.949 1.966-1.949h97.79c1.063 0 1.949.886 1.949 1.949v137.32a1.966 1.966 0 01-1.949 1.948h-97.79c-1.08 0-1.966-.886-1.966-1.948z" stroke="#E8EDE8" stroke-width="6" stroke-miterlimit="10" stroke-linecap="round" stroke-linejoin="round"/><path d="M205.456 227.537a1.18 1.18 0 01-1.18-1.18v-24.151a1.18 1.18 0 012.36 0v24.151a1.18 1.18 0 01-1.18 1.18z" fill="#E8EDE8"/><path d="M130.985 246.212h-25.268c-1.735 0-3.146-1.403-3.146-3.128v-137.32c0-1.725 1.411-3.128 3.146-3.128h97.79a3.132 3.132 0 013.128 3.128v96.443a1.18 1.18 0 01-2.359 0v-96.443a.79.79 0 00-.769-.768h-97.79a.788.788 0 00-.786.768v137.32c0 .417.359.769.786.769h25.268a1.18 1.18 0 010 2.359z" fill="#E8EDE8"/><path d="M203.507 246.212h-72.522a1.18 1.18 0 010-2.359h72.522a.79.79 0 00.769-.769v-16.727a1.18 1.18 0 112.359 0v16.727a3.131 3.131 0 01-3.128 3.128zM185.61 124.095h-8.84a1.18 1.18 0 110-2.36h8.84a1.18 1.18 0 010 2.36zm-17.115 0h-4.199a1.18 1.18 0 110-2.36h4.199a1.18 1.18 0 010 2.36zm-14.033 0h-29.467a1.18 1.18 0 110-2.36h29.467a1.18 1.18 0 010 2.36zm34.604 21.262h-71.46a1.18 1.18 0 110-2.359h71.46a1.18 1.18 0 010 2.359zm6.219 17.755h-18.179a1.18 1.18 0 110-2.359h18.179a1.18 1.18 0 010 2.359zm-26.702 0h-50.977a1.18 1.18 0 110-2.359h50.977a1.18 1.18 0 110 2.359zm26.702 17.771H140.41a1.18 1.18 0 010-2.359h54.875a1.18 1.18 0 010 2.359zm-64.549 0h-13.13a1.18 1.18 0 110-2.359h13.13a1.18 1.18 0 010 2.359zm64.549 17.772h-33.931a1.18 1.18 0 010-2.359h33.931a1.18 1.18 0 010 2.359zm-43.145 0h-34.534a1.18 1.18 0 110-2.359h34.534a1.18 1.18 0 110 2.359zm-12.332 22.467h-27.393a1.18 1.18 0 010-2.359h27.393a1.18 1.18 0 110 2.359z" fill="#E8EDE8" stroke="#E8EDE8" stroke-width="5"/><path d="M179.445 239.266c-.312 0-.612-.124-.834-.345l-3.814-3.814-4.381 1.111a1.183 1.183 0 01-1.455-.958l-.852-5.346-4.2-1.682a1.18 1.18 0 01-.612-1.631l2.461-4.827-2.41-3.844a1.179 1.179 0 01.464-1.677l4.828-2.462.309-4.507a1.178 1.178 0 011.366-1.083l5.337.865 2.883-3.498a1.18 1.18 0 011.746-.082l3.83 3.846 4.381-1.11a1.179 1.179 0 011.455.958l.851 5.347 4.2 1.682a1.18 1.18 0 01.613 1.63l-2.462 4.842 2.409 3.829a1.18 1.18 0 01-.465 1.68l-4.825 2.443-.309 4.522a1.18 1.18 0 01-1.366 1.084l-5.343-.867-2.9 3.471a1.175 1.175 0 01-.852.422l-.053.001zm-4.288-6.647c.309 0 .61.122.834.346l3.376 3.375 2.504-2.996c.266-.32.681-.476 1.094-.408l4.728.766.267-3.899c.028-.415.273-.785.644-.972l4.268-2.162-2.076-3.299a1.18 1.18 0 01-.053-1.163l2.181-4.288-3.624-1.452a1.178 1.178 0 01-.726-.909l-.754-4.732-3.78.957a1.178 1.178 0 01-1.126-.311l-3.386-3.4-2.486 3.017a1.174 1.174 0 01-1.099.414l-4.729-.767-.266 3.883a1.18 1.18 0 01-.641.97l-4.275 2.18 2.081 3.318c.22.352.24.793.051 1.163l-2.178 4.272 3.621 1.451c.386.154.661.499.727.909l.754 4.731 3.78-.958c.096-.024.193-.036.289-.036z" fill="#E8EDE8"/><circle cx="150.5" cy="166.5" r="123" stroke="#E8EDE8" stroke-width="7"/></g></svg>