<svg width="250" height="251" fill="none" xmlns="http://www.w3.org/2000/svg"><mask id="a" style="mask-type:alpha" maskUnits="userSpaceOnUse" x="0" y="0" width="250" height="250"><rect width="250" height="250" rx="10" fill="#DAE5DA"/></mask><g mask="url(#a)"><circle cx="150.5" cy="166.5" r="123" stroke="#E8EDE8" stroke-width="7"/></g><g clip-path="url(#clip0_163_837)" stroke="#E8EDE8" stroke-width="6" stroke-linecap="round" stroke-linejoin="round"><path d="M158.75 210.625l4.75-11.875 1.924-23.111a8.772 8.772 0 017.156-8.047 4.194 4.194 0 015.17 2.658l2.375 16.625s21.375 4.75 26.125 11.875 0 30.875 0 30.875l11.875 9.5m-68.875-38v21.556a12.357 12.357 0 008.961 11.879l7.664 2.19 7.125 7.125m-9.5-99.75a37.936 37.936 0 01-12.754 28.405 36.962 36.962 0 01-7.837 5.368 38 38 0 01-45.22-7.888 38 38 0 0138.088-62.471 37.999 37.999 0 0127.723 36.586z"/><path d="M155.568 196.375l-12.659-18.478a36.92 36.92 0 007.837-5.367l8.201 11.97M116 148.875l14.25-14.25m2.375 9.5l4.75-4.75m16.625 4.75a28.44 28.44 0 01-2.496 11.678 28.438 28.438 0 01-7.068 9.626 27.713 27.713 0 01-5.878 4.025 28.503 28.503 0 01-33.915-5.914A28.498 28.498 0 11154 144.125z"/></g><defs><clipPath id="clip0_163_837"><path fill="#fff" transform="translate(78 99)" d="M0 0h152v152H0z"/></clipPath></defs></svg>